<svg width="75" height="70" viewBox="0 0 75 70" fill="none" xmlns="http://www.w3.org/2000/svg">
<path id="Icon" d="M13.2838 69L48.0877 36.6737L64.4661 52.8369M13.2838 69H54.2296C61.0137 69 66.5134 63.5726 66.5134 56.8777V36.6737M13.2838 69C6.49962 69 1 63.5726 1 56.8777V16.4698C1 9.77485 6.49962 4.34749 13.2838 4.34749H39.8986M62.4188 23.8581L62.4188 12.4291M62.4188 12.4291L62.4188 1M62.4188 12.4291L50.8375 12.4291M62.4188 12.4291L74 12.4291M25.5675 22.531C25.5675 25.8785 22.8177 28.5922 19.4256 28.5922C16.0336 28.5922 13.2838 25.8785 13.2838 22.531C13.2838 19.1835 16.0336 16.4698 19.4256 16.4698C22.8177 16.4698 25.5675 19.1835 25.5675 22.531Z" stroke="#DDE5F2" stroke-width="2" stroke-linecap="round" stroke-linejoin="round"/>
</svg>
