<svg width="81" height="60" viewBox="0 0 81 60" fill="none" xmlns="http://www.w3.org/2000/svg">
<path d="M5.86488 54L10.1849 43.5H11.3849L15.6749 54H13.8149L10.4549 45.495H11.0849L7.69488 54H5.86488ZM7.99488 51.975V50.475H13.5599V51.975H7.99488ZM19.5423 54.15C18.8923 54.15 18.3023 53.985 17.7723 53.655C17.2523 53.325 16.8373 52.88 16.5273 52.32C16.2273 51.75 16.0773 51.115 16.0773 50.415C16.0773 49.705 16.2273 49.07 16.5273 48.51C16.8373 47.94 17.2523 47.49 17.7723 47.16C18.3023 46.82 18.8923 46.65 19.5423 46.65C20.0923 46.65 20.5773 46.77 20.9973 47.01C21.4273 47.24 21.7673 47.56 22.0173 47.97C22.2673 48.38 22.3923 48.845 22.3923 49.365V51.435C22.3923 51.955 22.2673 52.42 22.0173 52.83C21.7773 53.24 21.4423 53.565 21.0123 53.805C20.5823 54.035 20.0923 54.15 19.5423 54.15ZM19.8123 52.59C20.2223 52.59 20.5773 52.5 20.8773 52.32C21.1873 52.13 21.4273 51.87 21.5973 51.54C21.7673 51.21 21.8523 50.83 21.8523 50.4C21.8523 49.97 21.7673 49.59 21.5973 49.26C21.4273 48.93 21.1873 48.675 20.8773 48.495C20.5773 48.305 20.2223 48.21 19.8123 48.21C19.4123 48.21 19.0573 48.305 18.7473 48.495C18.4473 48.675 18.2073 48.93 18.0273 49.26C17.8573 49.59 17.7723 49.97 17.7723 50.4C17.7723 50.83 17.8573 51.21 18.0273 51.54C18.2073 51.87 18.4473 52.13 18.7473 52.32C19.0573 52.5 19.4123 52.59 19.8123 52.59ZM23.3973 54H21.7473V52.065L22.0323 50.31L21.7473 48.57V43.2H23.3973V54ZM28.2435 54.15C27.5935 54.15 27.0035 53.985 26.4735 53.655C25.9535 53.325 25.5385 52.88 25.2285 52.32C24.9285 51.75 24.7785 51.115 24.7785 50.415C24.7785 49.705 24.9285 49.07 25.2285 48.51C25.5385 47.94 25.9535 47.49 26.4735 47.16C27.0035 46.82 27.5935 46.65 28.2435 46.65C28.7935 46.65 29.2785 46.77 29.6985 47.01C30.1285 47.24 30.4685 47.56 30.7185 47.97C30.9685 48.38 31.0935 48.845 31.0935 49.365V51.435C31.0935 51.955 30.9685 52.42 30.7185 52.83C30.4785 53.24 30.1435 53.565 29.7135 53.805C29.2835 54.035 28.7935 54.15 28.2435 54.15ZM28.5135 52.59C28.9235 52.59 29.2785 52.5 29.5785 52.32C29.8885 52.13 30.1285 51.87 30.2985 51.54C30.4685 51.21 30.5535 50.83 30.5535 50.4C30.5535 49.97 30.4685 49.59 30.2985 49.26C30.1285 48.93 29.8885 48.675 29.5785 48.495C29.2785 48.305 28.9235 48.21 28.5135 48.21C28.1135 48.21 27.7585 48.305 27.4485 48.495C27.1485 48.675 26.9085 48.93 26.7285 49.26C26.5585 49.59 26.4735 49.97 26.4735 50.4C26.4735 50.83 26.5585 51.21 26.7285 51.54C26.9085 51.87 27.1485 52.13 27.4485 52.32C27.7585 52.5 28.1135 52.59 28.5135 52.59ZM32.0985 54H30.4485V52.065L30.7335 50.31L30.4485 48.57V43.2H32.0985V54ZM38.3426 50.04V48.54H40.9676C41.3276 48.54 41.6426 48.47 41.9126 48.33C42.1926 48.18 42.4126 47.975 42.5726 47.715C42.7326 47.445 42.8126 47.13 42.8126 46.77C42.8126 46.41 42.7326 46.1 42.5726 45.84C42.4126 45.57 42.1926 45.365 41.9126 45.225C41.6426 45.075 41.3276 45 40.9676 45H38.3426V43.5H41.0576C41.7176 43.5 42.3076 43.635 42.8276 43.905C43.3576 44.175 43.7726 44.555 44.0726 45.045C44.3826 45.535 44.5376 46.11 44.5376 46.77C44.5376 47.43 44.3826 48.005 44.0726 48.495C43.7726 48.985 43.3576 49.365 42.8276 49.635C42.3076 49.905 41.7176 50.04 41.0576 50.04H38.3426ZM37.1576 54V43.5H38.8826V54H37.1576ZM50.9203 54V49.845C50.9203 49.365 50.7653 48.97 50.4553 48.66C50.1553 48.35 49.7653 48.195 49.2853 48.195C48.9653 48.195 48.6803 48.265 48.4303 48.405C48.1803 48.545 47.9853 48.74 47.8453 48.99C47.7053 49.24 47.6353 49.525 47.6353 49.845L46.9903 49.485C46.9903 48.935 47.1103 48.45 47.3503 48.03C47.5903 47.6 47.9203 47.265 48.3403 47.025C48.7703 46.775 49.2503 46.65 49.7803 46.65C50.3203 46.65 50.8003 46.77 51.2203 47.01C51.6403 47.25 51.9703 47.585 52.2103 48.015C52.4503 48.435 52.5703 48.925 52.5703 49.485V54H50.9203ZM45.9853 54V43.2H47.6353V54H45.9853ZM57.547 54.15C56.847 54.15 56.212 53.985 55.642 53.655C55.072 53.315 54.617 52.86 54.277 52.29C53.947 51.72 53.782 51.085 53.782 50.385C53.782 49.685 53.947 49.055 54.277 48.495C54.617 47.935 55.072 47.49 55.642 47.16C56.212 46.82 56.847 46.65 57.547 46.65C58.257 46.65 58.897 46.815 59.467 47.145C60.037 47.475 60.487 47.925 60.817 48.495C61.157 49.055 61.327 49.685 61.327 50.385C61.327 51.085 61.157 51.72 60.817 52.29C60.487 52.86 60.037 53.315 59.467 53.655C58.897 53.985 58.257 54.15 57.547 54.15ZM57.547 52.56C57.957 52.56 58.317 52.47 58.627 52.29C58.947 52.1 59.192 51.84 59.362 51.51C59.542 51.18 59.632 50.805 59.632 50.385C59.632 49.965 59.542 49.595 59.362 49.275C59.182 48.955 58.937 48.705 58.627 48.525C58.317 48.335 57.957 48.24 57.547 48.24C57.147 48.24 56.787 48.335 56.467 48.525C56.157 48.705 55.912 48.955 55.732 49.275C55.562 49.595 55.477 49.965 55.477 50.385C55.477 50.805 55.562 51.18 55.732 51.51C55.912 51.84 56.157 52.1 56.467 52.29C56.787 52.47 57.147 52.56 57.547 52.56ZM63.5891 54V43.8H65.2391V54H63.5891ZM61.8641 48.3V46.8H66.9641V48.3H61.8641ZM71.258 54.15C70.558 54.15 69.923 53.985 69.353 53.655C68.783 53.315 68.328 52.86 67.988 52.29C67.658 51.72 67.493 51.085 67.493 50.385C67.493 49.685 67.658 49.055 67.988 48.495C68.328 47.935 68.783 47.49 69.353 47.16C69.923 46.82 70.558 46.65 71.258 46.65C71.968 46.65 72.608 46.815 73.178 47.145C73.748 47.475 74.198 47.925 74.528 48.495C74.868 49.055 75.038 49.685 75.038 50.385C75.038 51.085 74.868 51.72 74.528 52.29C74.198 52.86 73.748 53.315 73.178 53.655C72.608 53.985 71.968 54.15 71.258 54.15ZM71.258 52.56C71.668 52.56 72.028 52.47 72.338 52.29C72.658 52.1 72.903 51.84 73.073 51.51C73.253 51.18 73.343 50.805 73.343 50.385C73.343 49.965 73.253 49.595 73.073 49.275C72.893 48.955 72.648 48.705 72.338 48.525C72.028 48.335 71.668 48.24 71.258 48.24C70.858 48.24 70.498 48.335 70.178 48.525C69.868 48.705 69.623 48.955 69.443 49.275C69.273 49.595 69.188 49.965 69.188 50.385C69.188 50.805 69.273 51.18 69.443 51.51C69.623 51.84 69.868 52.1 70.178 52.29C70.498 52.47 70.858 52.56 71.258 52.56Z" fill="#465061"/>
<path d="M32.5433 27L45.416 14.64L51.4737 20.82M32.5433 27H47.6877C50.1969 27 52.231 24.9248 52.231 22.365V14.64M32.5433 27C30.0341 27 28 24.9248 28 22.365V6.91494C28 4.35509 30.0341 2.27992 32.5433 2.27992H42.3871M50.7165 9.73987L50.7165 5.36993M50.7165 5.36993L50.7165 1M50.7165 5.36993L46.4331 5.36993M50.7165 5.36993L55 5.36993M37.0866 9.23245C37.0866 10.5124 36.0696 11.55 34.815 11.55C33.5604 11.55 32.5433 10.5124 32.5433 9.23245C32.5433 7.95252 33.5604 6.91494 34.815 6.91494C36.0696 6.91494 37.0866 7.95252 37.0866 9.23245Z" stroke="#ED1C24" stroke-width="2" stroke-linecap="round" stroke-linejoin="round"/>
</svg>
