<svg width="20" height="20" viewBox="0 0 20 20" fill="none" xmlns="http://www.w3.org/2000/svg">
<path d="M10 11.2495C13.1055 11.2495 15.625 8.72998 15.625 5.62451C15.625 2.51904 13.1055 -0.000488281 10 -0.000488281C6.89453 -0.000488281 4.375 2.51904 4.375 5.62451C4.375 8.72998 6.89453 11.2495 10 11.2495ZM15 12.4995H12.8477C11.9805 12.8979 11.0156 13.1245 10 13.1245C8.98438 13.1245 8.02344 12.8979 7.15234 12.4995H5C2.23828 12.4995 0 14.7378 0 17.4995V18.1245C0 19.1597 0.839844 19.9995 1.875 19.9995H18.125C19.1602 19.9995 20 19.1597 20 18.1245V17.4995C20 14.7378 17.7617 12.4995 15 12.4995Z" fill="white" fill-opacity="0.8"/>
</svg>
