<svg width="48" height="77" viewBox="0 0 48 77" fill="none" xmlns="http://www.w3.org/2000/svg">
<path d="M17.516 70.14C16.8067 70.14 16.1487 70.014 15.542 69.762C14.9447 69.5007 14.422 69.1413 13.974 68.684C13.526 68.2173 13.1807 67.6807 12.938 67.074C12.6953 66.458 12.574 65.8 12.574 65.1C12.574 64.4 12.6953 63.7467 12.938 63.14C13.1807 62.524 13.526 61.9873 13.974 61.53C14.422 61.0727 14.9447 60.7133 15.542 60.452C16.1487 60.1907 16.8067 60.06 17.516 60.06C18.3093 60.06 18.9953 60.1907 19.574 60.452C20.1527 60.7133 20.666 61.068 21.114 61.516L20.022 62.608C19.7327 62.2907 19.378 62.0433 18.958 61.866C18.5473 61.6887 18.0667 61.6 17.516 61.6C17.0307 61.6 16.5873 61.684 16.186 61.852C15.7847 62.02 15.4347 62.2627 15.136 62.58C14.8467 62.888 14.6227 63.2567 14.464 63.686C14.3053 64.1153 14.226 64.5867 14.226 65.1C14.226 65.6133 14.3053 66.0847 14.464 66.514C14.6227 66.9433 14.8467 67.3167 15.136 67.634C15.4347 67.942 15.7847 68.18 16.186 68.348C16.5873 68.516 17.0307 68.6 17.516 68.6C18.1133 68.6 18.6173 68.5113 19.028 68.334C19.448 68.1473 19.8027 67.8953 20.092 67.578L21.184 68.67C20.736 69.1273 20.2087 69.4867 19.602 69.748C18.9953 70.0093 18.3 70.14 17.516 70.14ZM25.0196 70.14C24.4129 70.14 23.8622 69.986 23.3676 69.678C22.8822 69.37 22.4949 68.9547 22.2056 68.432C21.9256 67.9 21.7856 67.3073 21.7856 66.654C21.7856 65.9913 21.9256 65.3987 22.2056 64.876C22.4949 64.344 22.8822 63.924 23.3676 63.616C23.8622 63.2987 24.4129 63.14 25.0196 63.14C25.5329 63.14 25.9856 63.252 26.3776 63.476C26.7789 63.6907 27.0962 63.9893 27.3296 64.372C27.5629 64.7547 27.6796 65.1887 27.6796 65.674V67.606C27.6796 68.0913 27.5629 68.5253 27.3296 68.908C27.1056 69.2907 26.7929 69.594 26.3916 69.818C25.9902 70.0327 25.5329 70.14 25.0196 70.14ZM25.2716 68.684C25.8409 68.684 26.2982 68.4927 26.6436 68.11C26.9982 67.7273 27.1756 67.2373 27.1756 66.64C27.1756 66.2387 27.0962 65.884 26.9376 65.576C26.7789 65.268 26.5549 65.03 26.2656 64.862C25.9856 64.6847 25.6542 64.596 25.2716 64.596C24.8982 64.596 24.5669 64.6847 24.2776 64.862C23.9976 65.03 23.7736 65.268 23.6056 65.576C23.4469 65.884 23.3676 66.2387 23.3676 66.64C23.3676 67.0413 23.4469 67.396 23.6056 67.704C23.7736 68.012 23.9976 68.2547 24.2776 68.432C24.5669 68.6 24.8982 68.684 25.2716 68.684ZM27.0776 70V68.194L27.3436 66.556L27.0776 64.932V63.28H28.6176V70H27.0776ZM30.3267 70V59.92H31.8667V70H30.3267ZM33.5806 70V59.92H35.1206V70H33.5806Z" fill="#465061"/>
<circle cx="24" cy="24" r="24" fill="#EEF3FB"/>
<path d="M32.533 31.771C32.533 31.771 31.3743 32.909 31.0904 33.2427C30.6278 33.7363 30.0828 33.9693 29.3684 33.9693C29.2997 33.9693 29.2264 33.9693 29.1577 33.9648C27.7975 33.8779 26.5336 33.3478 25.5856 32.8953C22.9934 31.643 20.7173 29.8652 18.8259 27.612C17.2642 25.7336 16.2201 23.9969 15.5285 22.1322C15.1026 20.9942 14.9469 20.1075 15.0156 19.2711C15.0614 18.7364 15.2675 18.2931 15.6476 17.9137L17.2093 16.3553C17.4337 16.145 17.6718 16.0308 17.9054 16.0308C18.1939 16.0308 18.4275 16.2044 18.574 16.3507C18.5786 16.3553 18.5832 16.3598 18.5878 16.3644C18.8671 16.6249 19.1328 16.8946 19.4121 17.1825C19.5541 17.3287 19.7006 17.475 19.8472 17.6258L21.0975 18.8735C21.5829 19.358 21.5829 19.8059 21.0975 20.2903C20.9646 20.4229 20.8364 20.5554 20.7036 20.6834C20.3189 21.0764 20.6211 20.7748 20.2227 21.1313C20.2135 21.1405 20.2043 21.145 20.1998 21.1542C19.8059 21.5472 19.8792 21.9311 19.9616 22.1916C19.9662 22.2053 19.9708 22.2191 19.9754 22.2328C20.3005 23.0189 20.7585 23.7593 21.4546 24.6413L21.4592 24.6459C22.7232 26.1998 24.0559 27.411 25.526 28.3387C25.7137 28.4576 25.9061 28.5536 26.0893 28.645C26.2541 28.7272 26.4098 28.8049 26.5426 28.8872C26.561 28.8963 26.5793 28.91 26.5976 28.9192C26.7533 28.9969 26.8999 29.0334 27.051 29.0334C27.4311 29.0334 27.6693 28.7958 27.7471 28.7181L28.6448 27.8222C28.8005 27.6668 29.0478 27.4795 29.3363 27.4795C29.6203 27.4795 29.8538 27.6577 29.9958 27.8131C30.0004 27.8177 30.0004 27.8177 30.005 27.8222L32.5284 30.3405C33.0001 30.8067 32.533 31.771 32.533 31.771Z" stroke="#465061" stroke-width="2" stroke-linecap="round" stroke-linejoin="round"/>
</svg>
