<svg width="38" height="38" viewBox="0 0 38 38" fill="none" xmlns="http://www.w3.org/2000/svg">
<path d="M26.0711 13.3431C26.4616 12.9526 26.4616 12.3195 26.0711 11.9289C25.6805 11.5384 25.0474 11.5384 24.6569 11.9289L26.0711 13.3431ZM11.9289 24.6569C11.5384 25.0474 11.5384 25.6805 11.9289 26.0711C12.3195 26.4616 12.9526 26.4616 13.3431 26.0711L11.9289 24.6569ZM24.6569 26.0711C25.0474 26.4616 25.6805 26.4616 26.0711 26.0711C26.4616 25.6805 26.4616 25.0474 26.0711 24.6569L24.6569 26.0711ZM13.3431 11.9289C12.9526 11.5384 12.3195 11.5384 11.9289 11.9289C11.5384 12.3195 11.5384 12.9526 11.9289 13.3431L13.3431 11.9289ZM36 19C36 28.3888 28.3888 36 19 36V38C29.4934 38 38 29.4934 38 19H36ZM19 36C9.61116 36 2 28.3888 2 19H0C0 29.4934 8.50659 38 19 38V36ZM2 19C2 9.61116 9.61116 2 19 2V0C8.50659 0 0 8.50659 0 19H2ZM19 2C28.3888 2 36 9.61116 36 19H38C38 8.50659 29.4934 0 19 0V2ZM24.6569 11.9289L18.2929 18.2929L19.7071 19.7071L26.0711 13.3431L24.6569 11.9289ZM18.2929 18.2929L11.9289 24.6569L13.3431 26.0711L19.7071 19.7071L18.2929 18.2929ZM26.0711 24.6569L19.7071 18.2929L18.2929 19.7071L24.6569 26.0711L26.0711 24.6569ZM19.7071 18.2929L13.3431 11.9289L11.9289 13.3431L18.2929 19.7071L19.7071 18.2929Z" fill="#ED1C24"/>
</svg>
