<svg width="48" height="77" viewBox="0 0 48 77" fill="none" xmlns="http://www.w3.org/2000/svg">
<circle cx="24" cy="24" r="24" fill="#EEF3FB"/>
<path d="M19.1992 24.0901V23.9999M23.9992 24.0901V23.9999M28.7992 24.0901V23.9999M33.5992 23.9999C33.5992 25.3799 33.308 26.6919 32.7837 27.8779L33.601 33.599L28.6981 32.3733C27.3091 33.1544 25.7062 33.5999 23.9992 33.5999C18.6972 33.5999 14.3992 29.3018 14.3992 23.9999C14.3992 18.698 18.6972 14.3999 23.9992 14.3999C29.3011 14.3999 33.5992 18.698 33.5992 23.9999Z" stroke="#465061" stroke-width="2" stroke-linecap="round" stroke-linejoin="round"/>
<path d="M13.516 70.14C12.8067 70.14 12.1487 70.014 11.542 69.762C10.9447 69.5007 10.422 69.1413 9.974 68.684C9.526 68.2173 9.18067 67.6807 8.938 67.074C8.69533 66.458 8.574 65.8 8.574 65.1C8.574 64.4 8.69533 63.7467 8.938 63.14C9.18067 62.524 9.526 61.9873 9.974 61.53C10.422 61.0727 10.9447 60.7133 11.542 60.452C12.1487 60.1907 12.8067 60.06 13.516 60.06C14.3093 60.06 14.9953 60.1907 15.574 60.452C16.1527 60.7133 16.666 61.068 17.114 61.516L16.022 62.608C15.7327 62.2907 15.378 62.0433 14.958 61.866C14.5473 61.6887 14.0667 61.6 13.516 61.6C13.0307 61.6 12.5873 61.684 12.186 61.852C11.7847 62.02 11.4347 62.2627 11.136 62.58C10.8467 62.888 10.6227 63.2567 10.464 63.686C10.3053 64.1153 10.226 64.5867 10.226 65.1C10.226 65.6133 10.3053 66.0847 10.464 66.514C10.6227 66.9433 10.8467 67.3167 11.136 67.634C11.4347 67.942 11.7847 68.18 12.186 68.348C12.5873 68.516 13.0307 68.6 13.516 68.6C14.1133 68.6 14.6173 68.5113 15.028 68.334C15.448 68.1473 15.8027 67.8953 16.092 67.578L17.184 68.67C16.736 69.1273 16.2087 69.4867 15.602 69.748C14.9953 70.0093 14.3 70.14 13.516 70.14ZM23.0166 70V66.122C23.0166 65.674 22.872 65.3053 22.5826 65.016C22.3026 64.7267 21.9386 64.582 21.4906 64.582C21.192 64.582 20.926 64.6473 20.6926 64.778C20.4593 64.9087 20.2773 65.0907 20.1466 65.324C20.016 65.5573 19.9506 65.8233 19.9506 66.122L19.3486 65.786C19.3486 65.2727 19.4606 64.82 19.6846 64.428C19.9086 64.0267 20.2166 63.714 20.6086 63.49C21.01 63.2567 21.458 63.14 21.9526 63.14C22.4566 63.14 22.9046 63.252 23.2966 63.476C23.6886 63.7 23.9966 64.0127 24.2206 64.414C24.4446 64.806 24.5566 65.2633 24.5566 65.786V70H23.0166ZM18.4106 70V59.92H19.9506V70H18.4106ZM28.9356 70.14C28.3289 70.14 27.7782 69.986 27.2836 69.678C26.7982 69.37 26.4109 68.9547 26.1216 68.432C25.8416 67.9 25.7016 67.3073 25.7016 66.654C25.7016 65.9913 25.8416 65.3987 26.1216 64.876C26.4109 64.344 26.7982 63.924 27.2836 63.616C27.7782 63.2987 28.3289 63.14 28.9356 63.14C29.4489 63.14 29.9016 63.252 30.2936 63.476C30.6949 63.6907 31.0122 63.9893 31.2456 64.372C31.4789 64.7547 31.5956 65.1887 31.5956 65.674V67.606C31.5956 68.0913 31.4789 68.5253 31.2456 68.908C31.0216 69.2907 30.7089 69.594 30.3076 69.818C29.9062 70.0327 29.4489 70.14 28.9356 70.14ZM29.1876 68.684C29.7569 68.684 30.2142 68.4927 30.5596 68.11C30.9142 67.7273 31.0916 67.2373 31.0916 66.64C31.0916 66.2387 31.0122 65.884 30.8536 65.576C30.6949 65.268 30.4709 65.03 30.1816 64.862C29.9016 64.6847 29.5702 64.596 29.1876 64.596C28.8142 64.596 28.4829 64.6847 28.1936 64.862C27.9136 65.03 27.6896 65.268 27.5216 65.576C27.3629 65.884 27.2836 66.2387 27.2836 66.64C27.2836 67.0413 27.3629 67.396 27.5216 67.704C27.6896 68.012 27.9136 68.2547 28.1936 68.432C28.4829 68.6 28.8142 68.684 29.1876 68.684ZM30.9936 70V68.194L31.2596 66.556L30.9936 64.932V63.28H32.5336V70H30.9936ZM35.2647 70V60.48H36.8047V70H35.2647ZM33.6547 64.68V63.28H38.4147V64.68H33.6547Z" fill="#465061"/>
</svg>
