<svg width="155" height="49" viewBox="0 0 155 49" fill="none" xmlns="http://www.w3.org/2000/svg">
<g filter="url(#filter0_d_66_275)">
<rect x="8" y="8" width="139" height="33" rx="16.5" fill="white"/>
</g>
<path d="M53.6058 29.12C53.0058 29.12 52.4418 29.012 51.9138 28.796C51.3938 28.572 50.9338 28.26 50.5338 27.86C50.1418 27.46 49.8338 27 49.6098 26.48C49.3938 25.952 49.2858 25.384 49.2858 24.776C49.2858 24.16 49.3978 23.592 49.6218 23.072C49.8458 22.544 50.1578 22.084 50.5578 21.692C50.9578 21.292 51.4258 20.984 51.9618 20.768C52.4978 20.544 53.0778 20.432 53.7018 20.432C54.3978 20.432 55.0378 20.564 55.6218 20.828C56.2058 21.084 56.6898 21.448 57.0738 21.92L55.9698 23.024C55.7058 22.68 55.3778 22.416 54.9858 22.232C54.5938 22.048 54.1618 21.956 53.6898 21.956C53.1538 21.956 52.6778 22.076 52.2618 22.316C51.8538 22.548 51.5338 22.876 51.3018 23.3C51.0698 23.716 50.9538 24.204 50.9538 24.764C50.9538 25.324 51.0658 25.82 51.2898 26.252C51.5218 26.676 51.8338 27.008 52.2258 27.248C52.6258 27.488 53.0818 27.608 53.5938 27.608C54.1218 27.608 54.5738 27.512 54.9498 27.32C55.3258 27.12 55.6138 26.832 55.8138 26.456C56.0138 26.072 56.1138 25.604 56.1138 25.052L57.1818 25.784L53.4978 25.748V24.332H57.7938V24.56C57.7938 25.568 57.6138 26.412 57.2538 27.092C56.8938 27.764 56.3978 28.272 55.7658 28.616C55.1418 28.952 54.4218 29.12 53.6058 29.12ZM61.6496 29.12C61.0416 29.12 60.5016 28.992 60.0296 28.736C59.5576 28.472 59.1816 28.112 58.9016 27.656C58.6296 27.2 58.4936 26.68 58.4936 26.096C58.4936 25.52 58.6256 25.008 58.8896 24.56C59.1616 24.104 59.5296 23.744 59.9936 23.48C60.4576 23.208 60.9736 23.072 61.5416 23.072C62.1016 23.072 62.5936 23.2 63.0176 23.456C63.4496 23.704 63.7856 24.048 64.0256 24.488C64.2736 24.92 64.3976 25.412 64.3976 25.964C64.3976 26.068 64.3896 26.176 64.3736 26.288C64.3656 26.392 64.3456 26.512 64.3136 26.648L59.4416 26.66V25.484L63.5816 25.472L62.9456 25.964C62.9296 25.62 62.8656 25.332 62.7536 25.1C62.6496 24.868 62.4936 24.692 62.2856 24.572C62.0856 24.444 61.8376 24.38 61.5416 24.38C61.2296 24.38 60.9576 24.452 60.7256 24.596C60.4936 24.732 60.3136 24.928 60.1856 25.184C60.0656 25.432 60.0056 25.728 60.0056 26.072C60.0056 26.424 60.0696 26.732 60.1976 26.996C60.3336 27.252 60.5256 27.452 60.7736 27.596C61.0216 27.732 61.3096 27.8 61.6376 27.8C61.9336 27.8 62.2016 27.752 62.4416 27.656C62.6816 27.552 62.8896 27.4 63.0656 27.2L63.9896 28.124C63.7096 28.452 63.3656 28.7 62.9576 28.868C62.5576 29.036 62.1216 29.12 61.6496 29.12ZM66.0812 29V20.792H67.6532V29H66.0812ZM64.7252 24.584V23.204H69.0092V24.584H64.7252ZM73.521 29V27.548H75.669C76.213 27.548 76.689 27.436 77.097 27.212C77.505 26.98 77.821 26.656 78.045 26.24C78.277 25.824 78.393 25.332 78.393 24.764C78.393 24.212 78.277 23.732 78.045 23.324C77.813 22.908 77.493 22.588 77.085 22.364C76.677 22.132 76.205 22.016 75.669 22.016H73.485V20.564H75.693C76.317 20.564 76.893 20.668 77.421 20.876C77.957 21.084 78.421 21.38 78.813 21.764C79.213 22.14 79.521 22.584 79.737 23.096C79.961 23.608 80.073 24.168 80.073 24.776C80.073 25.384 79.961 25.948 79.737 26.468C79.521 26.98 79.217 27.428 78.825 27.812C78.433 28.188 77.969 28.48 77.433 28.688C76.905 28.896 76.333 29 75.717 29H73.521ZM72.405 29V20.564H74.037V29H72.405ZM81.2019 29V23.204H82.7859V29H81.2019ZM81.9939 22.268C81.7379 22.268 81.5259 22.184 81.3579 22.016C81.1899 21.84 81.1059 21.624 81.1059 21.368C81.1059 21.12 81.1899 20.908 81.3579 20.732C81.5259 20.556 81.7379 20.468 81.9939 20.468C82.2579 20.468 82.4699 20.556 82.6299 20.732C82.7979 20.908 82.8819 21.12 82.8819 21.368C82.8819 21.624 82.7979 21.84 82.6299 22.016C82.4699 22.184 82.2579 22.268 81.9939 22.268ZM84.1784 29V23.204H85.7504V29H84.1784ZM85.7504 25.796L85.1384 25.388C85.2104 24.676 85.4184 24.116 85.7624 23.708C86.1064 23.292 86.6024 23.084 87.2504 23.084C87.5304 23.084 87.7824 23.132 88.0064 23.228C88.2304 23.316 88.4344 23.464 88.6184 23.672L87.6344 24.8C87.5464 24.704 87.4384 24.632 87.3104 24.584C87.1904 24.536 87.0504 24.512 86.8904 24.512C86.5544 24.512 86.2784 24.62 86.0624 24.836C85.8544 25.044 85.7504 25.364 85.7504 25.796ZM91.7785 29.12C91.1705 29.12 90.6305 28.992 90.1585 28.736C89.6865 28.472 89.3105 28.112 89.0305 27.656C88.7585 27.2 88.6225 26.68 88.6225 26.096C88.6225 25.52 88.7545 25.008 89.0185 24.56C89.2905 24.104 89.6585 23.744 90.1225 23.48C90.5865 23.208 91.1025 23.072 91.6705 23.072C92.2305 23.072 92.7225 23.2 93.1465 23.456C93.5785 23.704 93.9145 24.048 94.1545 24.488C94.4025 24.92 94.5265 25.412 94.5265 25.964C94.5265 26.068 94.5185 26.176 94.5025 26.288C94.4945 26.392 94.4745 26.512 94.4425 26.648L89.5705 26.66V25.484L93.7105 25.472L93.0745 25.964C93.0585 25.62 92.9945 25.332 92.8825 25.1C92.7785 24.868 92.6225 24.692 92.4145 24.572C92.2145 24.444 91.9665 24.38 91.6705 24.38C91.3585 24.38 91.0865 24.452 90.8545 24.596C90.6225 24.732 90.4425 24.928 90.3145 25.184C90.1945 25.432 90.1345 25.728 90.1345 26.072C90.1345 26.424 90.1985 26.732 90.3265 26.996C90.4625 27.252 90.6545 27.452 90.9025 27.596C91.1505 27.732 91.4385 27.8 91.7665 27.8C92.0625 27.8 92.3305 27.752 92.5705 27.656C92.8105 27.552 93.0185 27.4 93.1945 27.2L94.1185 28.124C93.8385 28.452 93.4945 28.7 93.0865 28.868C92.6865 29.036 92.2505 29.12 91.7785 29.12ZM98.2347 29.12C97.6427 29.12 97.1107 28.988 96.6387 28.724C96.1667 28.46 95.7947 28.1 95.5227 27.644C95.2507 27.188 95.1147 26.676 95.1147 26.108C95.1147 25.532 95.2507 25.016 95.5227 24.56C95.7947 24.104 96.1667 23.744 96.6387 23.48C97.1187 23.208 97.6507 23.072 98.2347 23.072C98.6907 23.072 99.1107 23.156 99.4947 23.324C99.8787 23.492 100.211 23.732 100.491 24.044L99.4827 25.064C99.3307 24.896 99.1467 24.768 98.9307 24.68C98.7227 24.592 98.4907 24.548 98.2347 24.548C97.9467 24.548 97.6867 24.616 97.4547 24.752C97.2307 24.88 97.0507 25.06 96.9147 25.292C96.7867 25.516 96.7227 25.784 96.7227 26.096C96.7227 26.4 96.7867 26.672 96.9147 26.912C97.0507 27.144 97.2307 27.328 97.4547 27.464C97.6867 27.592 97.9467 27.656 98.2347 27.656C98.4987 27.656 98.7347 27.612 98.9427 27.524C99.1587 27.428 99.3427 27.292 99.4947 27.116L100.515 28.136C100.219 28.456 99.8787 28.7 99.4947 28.868C99.1107 29.036 98.6907 29.12 98.2347 29.12ZM102.163 29V20.792H103.735V29H102.163ZM100.807 24.584V23.204H105.091V24.584H100.807ZM105.975 29V23.204H107.559V29H105.975ZM106.767 22.268C106.511 22.268 106.299 22.184 106.131 22.016C105.963 21.84 105.879 21.624 105.879 21.368C105.879 21.12 105.963 20.908 106.131 20.732C106.299 20.556 106.511 20.468 106.767 20.468C107.031 20.468 107.243 20.556 107.403 20.732C107.571 20.908 107.655 21.12 107.655 21.368C107.655 21.624 107.571 21.84 107.403 22.016C107.243 22.184 107.031 22.268 106.767 22.268ZM111.676 29.12C111.092 29.12 110.564 28.988 110.092 28.724C109.628 28.452 109.256 28.088 108.976 27.632C108.704 27.168 108.568 26.652 108.568 26.084C108.568 25.516 108.704 25.008 108.976 24.56C109.248 24.104 109.62 23.744 110.092 23.48C110.564 23.208 111.088 23.072 111.664 23.072C112.256 23.072 112.784 23.208 113.248 23.48C113.72 23.744 114.092 24.104 114.364 24.56C114.636 25.008 114.772 25.516 114.772 26.084C114.772 26.652 114.636 27.168 114.364 27.632C114.092 28.088 113.72 28.452 113.248 28.724C112.784 28.988 112.26 29.12 111.676 29.12ZM111.664 27.656C111.96 27.656 112.22 27.592 112.444 27.464C112.676 27.328 112.852 27.144 112.972 26.912C113.1 26.672 113.164 26.4 113.164 26.096C113.164 25.792 113.1 25.524 112.972 25.292C112.844 25.06 112.668 24.88 112.444 24.752C112.22 24.616 111.96 24.548 111.664 24.548C111.376 24.548 111.12 24.616 110.896 24.752C110.672 24.88 110.496 25.06 110.368 25.292C110.24 25.524 110.176 25.792 110.176 26.096C110.176 26.4 110.24 26.672 110.368 26.912C110.496 27.144 110.672 27.328 110.896 27.464C111.12 27.592 111.376 27.656 111.664 27.656ZM119.684 29V25.676C119.684 25.332 119.576 25.052 119.36 24.836C119.144 24.62 118.864 24.512 118.52 24.512C118.296 24.512 118.096 24.56 117.92 24.656C117.744 24.752 117.604 24.888 117.5 25.064C117.404 25.24 117.356 25.444 117.356 25.676L116.744 25.364C116.744 24.908 116.84 24.512 117.032 24.176C117.232 23.832 117.504 23.564 117.848 23.372C118.2 23.18 118.596 23.084 119.036 23.084C119.46 23.084 119.84 23.192 120.176 23.408C120.512 23.616 120.776 23.892 120.968 24.236C121.16 24.572 121.256 24.936 121.256 25.328V29H119.684ZM115.784 29V23.204H117.356V29H115.784ZM124.514 29.132C124.186 29.132 123.862 29.088 123.542 29C123.23 28.912 122.942 28.792 122.678 28.64C122.414 28.48 122.186 28.288 121.994 28.064L122.93 27.116C123.13 27.34 123.362 27.508 123.626 27.62C123.89 27.732 124.182 27.788 124.502 27.788C124.758 27.788 124.95 27.752 125.078 27.68C125.214 27.608 125.282 27.5 125.282 27.356C125.282 27.196 125.21 27.072 125.066 26.984C124.93 26.896 124.75 26.824 124.526 26.768C124.302 26.704 124.066 26.636 123.818 26.564C123.578 26.484 123.346 26.384 123.122 26.264C122.898 26.136 122.714 25.964 122.57 25.748C122.434 25.524 122.366 25.236 122.366 24.884C122.366 24.516 122.454 24.196 122.63 23.924C122.814 23.652 123.074 23.44 123.41 23.288C123.746 23.136 124.142 23.06 124.598 23.06C125.078 23.06 125.51 23.144 125.894 23.312C126.286 23.48 126.61 23.732 126.866 24.068L125.918 25.016C125.742 24.8 125.542 24.644 125.318 24.548C125.102 24.452 124.866 24.404 124.61 24.404C124.378 24.404 124.198 24.44 124.07 24.512C123.95 24.584 123.89 24.684 123.89 24.812C123.89 24.956 123.958 25.068 124.094 25.148C124.238 25.228 124.422 25.3 124.646 25.364C124.87 25.42 125.102 25.488 125.342 25.568C125.59 25.64 125.822 25.744 126.038 25.88C126.262 26.016 126.442 26.196 126.578 26.42C126.722 26.644 126.794 26.932 126.794 27.284C126.794 27.852 126.59 28.304 126.182 28.64C125.774 28.968 125.218 29.132 124.514 29.132Z" fill="#465061"/>
<path d="M35.1973 29.0966L39.2959 31.0893C40.0641 31.4628 40.8836 30.6815 40.5471 29.8963L36.0169 19.3245C35.7018 18.589 34.6638 18.5761 34.3304 19.3034L29.4621 29.9247C29.1064 30.7008 29.9052 31.5021 30.6824 31.1488L35.1973 29.0966Z" stroke="#465061" stroke-width="2" stroke-linecap="round" stroke-linejoin="round"/>
<defs>
<filter id="filter0_d_66_275" x="0" y="0" width="155" height="49" filterUnits="userSpaceOnUse" color-interpolation-filters="sRGB">
<feFlood flood-opacity="0" result="BackgroundImageFix"/>
<feColorMatrix in="SourceAlpha" type="matrix" values="0 0 0 0 0 0 0 0 0 0 0 0 0 0 0 0 0 0 127 0" result="hardAlpha"/>
<feOffset/>
<feGaussianBlur stdDeviation="4"/>
<feComposite in2="hardAlpha" operator="out"/>
<feColorMatrix type="matrix" values="0 0 0 0 0 0 0 0 0 0 0 0 0 0 0 0 0 0 0.2 0"/>
<feBlend mode="normal" in2="BackgroundImageFix" result="effect1_dropShadow_66_275"/>
<feBlend mode="normal" in="SourceGraphic" in2="effect1_dropShadow_66_275" result="shape"/>
</filter>
</defs>
</svg>
