<svg width="22" height="22" viewBox="0 0 22 22" fill="none" xmlns="http://www.w3.org/2000/svg">
<path d="M17.6057 21.9164H15.4569C15.0987 21.9165 14.7553 21.7745 14.5029 21.5222C14.2505 21.2698 14.1101 20.9279 14.1127 20.5723V17.2215C14.1127 16.8108 13.9483 16.4169 13.6557 16.1264C13.3632 15.836 12.9664 15.6728 12.5526 15.6728H9.40301C8.5414 15.6728 7.84293 16.3662 7.84293 17.2215L17.6057 21.9164ZM17.6057 21.9164C18.6092 21.919 19.5726 21.5251 20.2831 20.8215C20.9937 20.118 21.393 19.1626 21.393 18.1664V8.62069C21.393 7.81591 21.0337 7.05254 20.4118 6.53622L17.6057 21.9164ZM7.09293 17.2215V20.0304L7.06744 20.0389L7.06352 20.5765C7.06117 20.8979 6.79651 21.1665 6.45949 21.1664H4.35974C2.67709 21.1664 1.32239 19.8138 1.32239 18.1566V8.63022C1.33863 8.04329 1.61903 7.49259 2.08944 7.13062L2.09514 7.12623L2.10075 7.12174L9.24374 1.40408L9.25411 1.39577L9.26418 1.38711C10.2242 0.561155 11.6439 0.535452 12.6338 1.32653L12.6361 1.32833L19.9387 7.11823C20.3861 7.49269 20.643 8.04267 20.643 8.62069V18.1664C20.643 18.9616 20.3243 19.7253 19.7554 20.2886C19.1864 20.852 18.4137 21.1685 17.6076 21.1664H17.6057H15.4569C15.2967 21.1665 15.1444 21.103 15.0332 20.9918C14.9223 20.8809 14.8615 20.7317 14.8627 20.5778H14.8627V20.5723V17.2215C14.8627 16.6101 14.6179 16.0248 14.1841 15.5942C13.7505 15.1637 13.1635 14.9228 12.5526 14.9228H9.40301C8.13235 14.9228 7.09293 15.9468 7.09293 17.2215Z" stroke="#848A94" stroke-width="1.5"/>
</svg>
