<svg width="68" height="50" viewBox="0 0 68 50" fill="none" xmlns="http://www.w3.org/2000/svg">
<path d="M0.5 0.5H52C60.5604 0.5 67.5 7.43959 67.5 16V34C67.5 42.5604 60.5604 49.5 52 49.5H0.5V0.5Z" fill="#DDE5F2" stroke="#E9F1FF"/>
<path d="M23.94 30L20.508 25.584L23.832 21.528H26.16L22.416 25.932V25.164L26.28 30H23.94ZM18.816 30V21.528H20.7V30H18.816ZM30.5581 30.132C29.9421 30.132 29.3621 30.02 28.8181 29.796C28.2821 29.572 27.8141 29.264 27.4141 28.872C27.0141 28.472 26.6981 28.008 26.4661 27.48C26.2421 26.944 26.1301 26.368 26.1301 25.752C26.1301 25.136 26.2461 24.564 26.4781 24.036C26.7101 23.508 27.0301 23.048 27.4381 22.656C27.8541 22.256 28.3381 21.948 28.8901 21.732C29.4421 21.508 30.0341 21.396 30.6661 21.396C31.3941 21.396 32.0541 21.528 32.6461 21.792C33.2461 22.056 33.7421 22.42 34.1341 22.884L32.8501 24.168C32.5781 23.816 32.2581 23.552 31.8901 23.376C31.5221 23.2 31.1061 23.112 30.6421 23.112C30.1461 23.112 29.7021 23.224 29.3101 23.448C28.9181 23.664 28.6101 23.972 28.3861 24.372C28.1701 24.764 28.0621 25.224 28.0621 25.752C28.0621 26.28 28.1701 26.744 28.3861 27.144C28.6021 27.544 28.8981 27.856 29.2741 28.08C29.6501 28.304 30.0821 28.416 30.5701 28.416C31.0661 28.416 31.4861 28.324 31.8301 28.14C32.1821 27.948 32.4501 27.676 32.6341 27.324C32.8261 26.964 32.9221 26.528 32.9221 26.016L34.1701 26.856L30.3901 26.796V25.2H34.8421V25.476C34.8421 26.492 34.6581 27.348 34.2901 28.044C33.9301 28.732 33.4261 29.252 32.7781 29.604C32.1381 29.956 31.3981 30.132 30.5581 30.132ZM37.7 31.524C37.244 31.132 36.856 30.66 36.536 30.108C36.216 29.556 35.972 28.952 35.804 28.296C35.636 27.64 35.552 26.952 35.552 26.232C35.552 25.512 35.636 24.824 35.804 24.168C35.972 23.512 36.216 22.908 36.536 22.356C36.856 21.804 37.244 21.332 37.7 20.94L38.708 21.912C38.196 22.408 37.804 23.02 37.532 23.748C37.26 24.476 37.124 25.304 37.124 26.232C37.124 27.152 37.26 27.98 37.532 28.716C37.804 29.444 38.196 30.06 38.708 30.564L37.7 31.524ZM41.6548 30.144C41.3108 30.144 40.9708 30.1 40.6348 30.012C40.3068 29.924 39.9988 29.8 39.7108 29.64C39.4308 29.472 39.1908 29.28 38.9908 29.064L40.0348 28.008C40.2268 28.216 40.4548 28.38 40.7188 28.5C40.9828 28.612 41.2708 28.668 41.5828 28.668C41.7988 28.668 41.9628 28.636 42.0748 28.572C42.1948 28.508 42.2548 28.42 42.2548 28.308C42.2548 28.164 42.1828 28.056 42.0388 27.984C41.9028 27.904 41.7268 27.836 41.5108 27.78C41.2948 27.716 41.0668 27.648 40.8268 27.576C40.5868 27.504 40.3588 27.404 40.1428 27.276C39.9268 27.148 39.7508 26.972 39.6148 26.748C39.4788 26.516 39.4108 26.224 39.4108 25.872C39.4108 25.496 39.5068 25.172 39.6988 24.9C39.8908 24.62 40.1628 24.4 40.5148 24.24C40.8668 24.08 41.2788 24 41.7508 24C42.2468 24 42.7028 24.088 43.1188 24.264C43.5428 24.432 43.8868 24.684 44.1508 25.02L43.1068 26.076C42.9228 25.86 42.7148 25.708 42.4828 25.62C42.2588 25.532 42.0388 25.488 41.8228 25.488C41.6148 25.488 41.4588 25.52 41.3548 25.584C41.2508 25.64 41.1988 25.724 41.1988 25.836C41.1988 25.956 41.2668 26.052 41.4028 26.124C41.5388 26.196 41.7148 26.26 41.9308 26.316C42.1468 26.372 42.3748 26.44 42.6148 26.52C42.8548 26.6 43.0828 26.708 43.2988 26.844C43.5148 26.98 43.6908 27.164 43.8268 27.396C43.9628 27.62 44.0308 27.916 44.0308 28.284C44.0308 28.852 43.8148 29.304 43.3828 29.64C42.9588 29.976 42.3828 30.144 41.6548 30.144ZM45.5669 31.524L44.5589 30.564C45.0709 30.06 45.4629 29.444 45.7349 28.716C46.0069 27.98 46.1429 27.152 46.1429 26.232C46.1429 25.304 46.0069 24.476 45.7349 23.748C45.4629 23.02 45.0709 22.408 44.5589 21.912L45.5669 20.94C46.0229 21.332 46.4109 21.804 46.7309 22.356C47.0509 22.908 47.2949 23.512 47.4629 24.168C47.6309 24.824 47.7149 25.512 47.7149 26.232C47.7149 26.952 47.6309 27.64 47.4629 28.296C47.2949 28.952 47.0509 29.556 46.7309 30.108C46.4109 30.66 46.0229 31.132 45.5669 31.524Z" fill="#465061"/>
</svg>
