<svg width="132" height="93" viewBox="0 0 132 93" fill="none" xmlns="http://www.w3.org/2000/svg">
<g id="a" clip-path="url(#clip0_356_459)">
<g id="Group">
<path id="Vector" fill-rule="evenodd" clip-rule="evenodd" d="M4.44855 3.28231e-05H18.1373C18.1373 3.28231e-05 19.2171 -0.178727 20.6793 2.66468L27.6924 15.0829C27.6924 15.0829 28.5922 16.6862 29.8632 16.8314H33.5526L29.1377 22.6691H26.7363C26.7363 22.6691 24.7736 22.6858 23.272 19.7028L16.197 6.95492C16.197 6.95492 15.7021 5.86002 14.2005 5.93264H0L4.44855 3.28231e-05Z" fill="white"/>
<path id="Vector_2" fill-rule="evenodd" clip-rule="evenodd" d="M7.89606 7.02173H14.9091L23.1932 21.6968C23.1932 21.6968 23.9019 23.3727 25.859 23.7582H28.3167L24.3405 29.0707H21.7816C21.7816 29.0707 20.1225 29.1433 19.009 26.987L7.89606 7.02173Z" fill="white"/>
<path id="Vector_3" fill-rule="evenodd" clip-rule="evenodd" d="M0 6.98828H6.76562L18.8628 28.7021C18.8628 28.7021 19.4083 29.9366 20.7524 30.0763H23.5981L19.3577 35.7407H16.9562C16.9562 35.7407 15.8258 35.7407 14.8191 33.8023L0 6.98828Z" fill="white"/>
<path id="Vector_4" fill-rule="evenodd" clip-rule="evenodd" d="M72.2567 16.8145H57.5107C57.5107 16.8145 55.8516 16.7418 54.6481 18.3507L43.1302 33.7352C43.1302 33.7352 41.398 35.7463 44.4912 35.7463H58.0899L62.4541 29.9422H56.1834C56.1834 29.9422 54.8786 30.0818 55.6885 28.9702L60.0864 23.0767C60.0864 23.0767 60.4745 22.6689 61.8186 22.6689H67.8756L72.2567 16.8145Z" fill="white"/>
<path id="Vector_5" fill-rule="evenodd" clip-rule="evenodd" d="M78.7073 22.708L79.0616 22.2331H77.262C77.262 22.2331 76.9808 22.1829 76.5927 22.708C76.5927 22.708 75.8672 23.6409 76.5927 23.6409H82.5654C82.5654 23.6409 84.3875 23.5683 83.3583 24.9481L76.2047 34.5117C76.2047 34.5117 75.496 35.8022 73.2914 35.8022H62.1279C62.1279 35.8022 59.9739 35.6234 60.8231 34.3553L64.1244 29.9478H71.1543L70.6594 30.6684H72.5491C72.5491 30.6684 72.7234 30.7187 73.1115 30.1768C73.1115 30.1768 74.1013 28.9925 73.432 28.959H66.7564C66.7564 28.959 65.2211 28.7132 65.9072 27.4228L73.3083 17.6859C73.3083 17.6859 73.8201 16.7865 75.0236 16.7865H87.1601C87.1601 16.7865 89.511 16.7363 88.2737 18.3898L85.0399 22.6745L78.7186 22.708H78.7073Z" fill="white"/>
<path id="Vector_6" fill-rule="evenodd" clip-rule="evenodd" d="M35.1666 16.8145L30.7518 22.6689H36.1564L26.3707 35.7239H34.6548L44.4236 22.6689H49.8283L54.2262 16.8145H35.1666Z" fill="white"/>
<path id="Vector_7" fill-rule="evenodd" clip-rule="evenodd" d="M87.7676 12.4406C87.4133 12.7926 87.2558 13.2004 87.2558 13.6919C87.2558 14.1835 87.4301 14.6081 87.7676 14.96C88.1219 15.312 88.5437 15.4907 89.0386 15.4907C89.5335 15.4907 89.9553 15.312 90.3096 14.96C90.6639 14.6081 90.8214 14.1835 90.8214 13.6919C90.8214 13.2004 90.647 12.7758 90.3096 12.4406C89.9553 12.0887 89.5335 11.9099 89.0386 11.9099C88.5437 11.9099 88.105 12.0887 87.7676 12.4406ZM90.4896 15.1555C90.0846 15.5633 89.5897 15.7533 89.0217 15.7533C88.4537 15.7533 87.9644 15.5578 87.5538 15.1555C87.1489 14.7477 86.9521 14.2562 86.9521 13.6919C86.9521 13.1277 87.1489 12.6361 87.5538 12.2283C87.9588 11.8205 88.4368 11.6306 89.0217 11.6306C89.6066 11.6306 90.079 11.8261 90.4896 12.2283C90.8945 12.6361 91.0913 13.111 91.0913 13.6919C91.1082 14.2562 90.8945 14.7477 90.4896 15.1555ZM89.4098 12.9155C89.3029 12.8652 89.1454 12.8261 88.9317 12.8261H88.5943V13.6528H88.9655C89.1398 13.6528 89.2635 13.6361 89.3535 13.6026C89.511 13.5299 89.5841 13.4238 89.5841 13.2506C89.5672 13.0719 89.511 12.9657 89.4098 12.9155ZM88.988 12.5468C89.2692 12.5468 89.4829 12.5803 89.6066 12.6361C89.8372 12.7423 89.9609 12.921 89.9609 13.2171C89.9609 13.4126 89.8878 13.569 89.7303 13.6584C89.6572 13.7087 89.5335 13.7478 89.3929 13.7646C89.5672 13.7981 89.7135 13.8707 89.7809 13.9936C89.8709 14.1165 89.9047 14.2226 89.9047 14.3455V14.6807C89.9047 14.731 89.9215 14.7869 89.9215 14.8036L89.9384 14.8371H89.5672V14.5522C89.5672 14.2897 89.4941 14.1109 89.3535 14.0383C89.2635 13.988 89.1229 13.9657 88.9149 13.9657H88.5943V14.8148H88.1894V12.5412H88.9823L88.988 12.5468Z" fill="white"/>
</g>
<g id="Group_2">
<path id="Vector_8" d="M21.1348 44.0922L20.0888 49.1199C21.3204 47.5892 24.9647 43.2375 31.1342 43.2375C36.6288 43.2375 40.7006 46.729 40.7006 52.3096C40.7006 54.1475 40.4531 55.9239 39.5927 59.6053L36.0777 76.0959H25.5834L28.9184 60.4656C29.4133 57.8288 29.7845 56.1139 29.7845 54.9463C29.7845 54.5162 29.7226 53.9017 29.537 53.5386C29.2277 52.7398 28.3616 51.7007 26.3876 51.7007C24.9085 51.7007 22.4396 52.1309 20.4037 55.1363C19.2283 56.8513 18.9246 58.326 18.0585 62.1247L15.0947 76.1015H4.65662L10.4943 48.8406C11.0848 46.081 13.5425 44.1034 16.3826 44.1034H21.1348V44.0922Z" fill="white"/>
<path id="Vector_9" d="M47.6124 47.2764C49.5246 45.6229 53.4726 43.0476 59.8333 43.0476C65.5754 43.0476 68.9666 44.824 70.8788 46.2988C72.9765 47.9523 76.3115 51.3879 76.3115 57.9462C76.3115 59.3539 76.2497 61.7448 75.1361 64.8731C71.9867 74.0066 64.4618 76.1518 61.0031 76.7663C60.137 76.8891 58.9054 77.0735 56.9313 77.0735C55.4522 77.0735 50.9475 77.0735 47.0557 74.4982C44.6486 72.9061 41.0718 69.4092 41.0718 62.4822C41.0718 61.6219 41.1955 59.4153 41.8141 56.963C42.2472 55.4323 43.7882 50.6505 47.6181 47.2764H47.6124ZM51.5605 63.214C51.5605 64.4374 51.8079 65.2977 52.0554 65.7893C52.9833 67.9344 55.0811 69.1019 57.3644 69.1019C58.7198 69.1019 61.1268 68.6718 63.1683 65.9122C64.7712 63.7056 65.8228 60.1527 65.8228 57.3931C65.8228 55.1865 65.1423 53.0414 63.0446 51.9353C62.4878 51.6281 61.5036 51.198 60.0189 51.198C58.7816 51.198 56.622 51.5052 54.7099 53.8347C54.1531 54.5106 53.5345 55.4268 52.8596 57.1473C52.241 58.6165 51.9935 59.5997 51.8698 60.2756C51.8079 60.6443 51.5605 61.9292 51.5605 63.2196V63.214Z" fill="white"/>
<path id="Vector_10" d="M87.1433 44.0923L86.6484 66.9568L96.1529 44.0923H106.951L106.147 66.8339L115.899 44.0923H126.944L109.971 76.0904H99.0492L99.606 53.3487L89.9778 76.0904H78.7467L77.0201 44.0923H87.1433Z" fill="white"/>
</g>
<path id="Vector_11" d="M132 66.4541C129.301 74.7665 124.841 85.844 119.819 92.9944C119.942 87.0562 118.491 84.3692 118.491 84.3692C98.5656 95.6199 75.7604 94.8602 57.4544 85.2407C57.4544 85.2407 103.284 96.726 132 66.4541Z" fill="white"/>
</g>
<defs>
<clipPath id="clip0_356_459">
<rect width="132" height="93" fill="white"/>
</clipPath>
</defs>
</svg>
