<svg width="20" height="17" viewBox="0 0 20 17" fill="none" xmlns="http://www.w3.org/2000/svg">
<path d="M19.7232 9.25177L13.0562 16.688C12.4609 17.352 11.4291 16.8872 11.4291 15.9356V11.6863H6.03205C5.50424 11.6863 5.07962 11.2126 5.07962 10.6239V6.37464C5.07962 5.78593 5.50424 5.31232 6.03205 5.31232H11.4291V1.06302C11.4291 0.115782 12.457 -0.353411 13.0562 0.310542L19.7232 7.74681C20.0923 8.16288 20.0923 8.83569 19.7232 9.25177ZM7.61943 16.4667V14.6962C7.61943 14.404 7.40513 14.165 7.14321 14.165H3.80971C3.1073 14.165 2.53981 13.532 2.53981 12.7486V4.24999C2.53981 3.46653 3.1073 2.83356 3.80971 2.83356H7.14321C7.40513 2.83356 7.61943 2.59454 7.61943 2.3024V0.531859C7.61943 0.23972 7.40513 0.000697281 7.14321 0.000697281H3.80971C1.70643 0.000697281 0 1.90403 0 4.24999V12.7486C0 15.0945 1.70643 16.9979 3.80971 16.9979H7.14321C7.40513 16.9979 7.61943 16.7589 7.61943 16.4667Z" fill="white" fill-opacity="0.8"/>
</svg>
