<svg width="28" height="27" viewBox="0 0 28 27" fill="none" xmlns="http://www.w3.org/2000/svg">
<g id="Icon - Notification">
<path id="Bell" fill-rule="evenodd" clip-rule="evenodd" d="M9.59087 22.6446C10.1585 23.2768 10.8872 23.6242 11.6434 23.6242H11.6444C12.4039 23.6242 13.1359 23.2768 13.7046 22.6435C14.0092 22.307 14.5287 22.2796 14.8651 22.5832C15.2026 22.8867 15.23 23.4073 14.9264 23.7437C14.041 24.7266 12.8762 25.268 11.6444 25.268H11.6423C10.4138 25.2669 9.25117 24.7255 8.36903 23.7426C8.06549 23.4062 8.09288 22.8856 8.4304 22.5832C8.76791 22.2786 9.28733 22.306 9.59087 22.6446ZM11.6979 1.70776C16.5689 1.70776 19.841 5.5015 19.841 9.0443C19.841 10.8667 20.3045 11.6392 20.7965 12.4589C21.2831 13.2676 21.8343 14.1859 21.8343 15.9217C21.4518 20.3565 16.822 20.7181 11.6979 20.7181C6.57385 20.7181 1.94291 20.3565 1.56483 15.9918C1.56156 14.1859 2.11276 13.2676 2.59931 12.4589L2.77107 12.1698C3.19398 11.4429 3.55486 10.6523 3.55486 9.0443C3.55486 5.5015 6.82699 1.70776 11.6979 1.70776ZM11.6979 3.3515C7.86802 3.3515 5.1986 6.35186 5.1986 9.0443C5.1986 11.3225 4.56631 12.3756 4.00744 13.3049C3.55925 14.0511 3.2053 14.6407 3.2053 15.9217C3.3883 17.9884 4.7526 19.0744 11.6979 19.0744C18.6049 19.0744 20.0119 17.9402 20.1938 15.8505C20.1905 14.6407 19.8366 14.0511 19.3884 13.3049C18.8295 12.3756 18.1972 11.3225 18.1972 9.0443C18.1972 6.35186 15.5278 3.3515 11.6979 3.3515Z" fill="white"/>
<circle id="Notif" cx="18.5466" cy="4.99523" r="3.78747" fill="#4CD964" stroke="#FEFEFE"/>
</g>
</svg>
