<svg width="78" height="78" viewBox="0 0 78 78" fill="none" xmlns="http://www.w3.org/2000/svg">
<rect x="0.264404" width="77.0196" height="77.0196" rx="6" fill="#DBE2ED"/>
<path d="M26.7852 56.356L46.041 38.4955L55.1026 47.4258M26.7852 56.356H49.4391C53.1925 56.356 56.2353 53.3574 56.2353 49.6583V27.3327M26.7852 56.356C23.0318 56.356 19.989 53.3574 19.989 49.6583V27.3327C19.989 23.6337 23.0318 20.635 26.7852 20.635H51.4543M33.5814 30.6816C33.5814 32.5311 32.06 34.0304 30.1833 34.0304C28.3066 34.0304 26.7852 32.5311 26.7852 30.6816C26.7852 28.832 28.3066 27.3327 30.1833 27.3327C32.06 27.3327 33.5814 28.832 33.5814 30.6816Z" stroke="#EFF4FC" stroke-width="2" stroke-linecap="round" stroke-linejoin="round"/>
</svg>
