<svg width="20" height="20" viewBox="0 0 20 20" fill="none" xmlns="http://www.w3.org/2000/svg">
<path id="Vector" d="M18.533 16.771C18.533 16.771 17.3743 17.909 17.0904 18.2427C16.6278 18.7363 16.0828 18.9693 15.3684 18.9693C15.2997 18.9693 15.2264 18.9693 15.1577 18.9648C13.7975 18.8779 12.5336 18.3478 11.5856 17.8953C8.99345 16.643 6.71734 14.8652 4.82592 12.612C3.26424 10.7336 2.22007 8.99687 1.52854 7.13217C1.10263 5.99415 0.946916 5.1075 1.01561 4.27113C1.06141 3.7364 1.26749 3.29308 1.64761 2.91374L3.20929 1.35526C3.43369 1.14502 3.67184 1.03076 3.9054 1.03076C4.19392 1.03076 4.42749 1.20443 4.57404 1.35069C4.57862 1.35526 4.5832 1.35983 4.58778 1.3644C4.86714 1.62491 5.13276 1.89456 5.41212 2.18249C5.55409 2.32874 5.70064 2.47499 5.84719 2.62581L7.09745 3.87351C7.5829 4.35797 7.5829 4.80586 7.09745 5.29032C6.96464 5.42286 6.83641 5.5554 6.7036 5.68337C6.3189 6.07642 6.6211 5.77483 6.22267 6.13132C6.21351 6.14046 6.20435 6.14503 6.19977 6.15417C5.80591 6.54722 5.87919 6.93113 5.96162 7.19164C5.9662 7.20535 5.97078 7.21906 5.97536 7.23277C6.30052 8.01887 6.75849 8.75926 7.45461 9.64134L7.45919 9.64591C8.72318 11.1998 10.0559 12.411 11.526 13.3387C11.7137 13.4576 11.9061 13.5536 12.0893 13.645C12.2541 13.7272 12.4098 13.8049 12.5426 13.8872C12.561 13.8963 12.5793 13.91 12.5976 13.9192C12.7533 13.9969 12.8999 14.0334 13.051 14.0334C13.4311 14.0334 13.6693 13.7958 13.7471 13.7181L14.6448 12.8222C14.8005 12.6668 15.0478 12.4795 15.3363 12.4795C15.6203 12.4795 15.8538 12.6577 15.9958 12.8131C16.0004 12.8177 16.0004 12.8177 16.005 12.8222L18.5284 15.3405C19.0001 15.8067 18.533 16.771 18.533 16.771Z" stroke="#465061" stroke-width="2" stroke-linecap="round" stroke-linejoin="round"/>
</svg>
