<svg width="38" height="38" viewBox="0 0 38 38" fill="none" xmlns="http://www.w3.org/2000/svg">
<path d="M36.5814 32.5883C36.5814 32.5883 34.23 34.8721 33.6538 35.5417C32.7151 36.5322 31.6091 37 30.1592 37C30.0198 37 29.8711 37 29.7317 36.9908C26.9714 36.8166 24.4062 35.7526 22.4823 34.8446C17.2219 32.3315 12.6028 28.7636 8.76433 24.2418C5.59506 20.4721 3.47602 16.9868 2.07262 13.2446C1.20827 10.9608 0.892271 9.1814 1.03168 7.50293C1.12462 6.42981 1.54285 5.54013 2.31426 4.77885L5.48353 1.65121C5.93894 1.2293 6.42223 1 6.89623 1C7.48175 1 7.95575 1.34854 8.25316 1.64204C8.26245 1.65121 8.27174 1.66038 8.28104 1.66955C8.84798 2.19236 9.38703 2.7335 9.95397 3.31134C10.2421 3.60484 10.5395 3.89834 10.8369 4.20102L13.3742 6.70497C14.3593 7.6772 14.3593 8.57605 13.3742 9.54828C13.1046 9.81427 12.8444 10.0803 12.5749 10.3371C11.7942 11.1259 12.4075 10.5206 11.5989 11.236C11.5803 11.2544 11.5617 11.2636 11.5524 11.2819C10.7531 12.0707 10.9018 12.8411 11.0691 13.3639C11.0784 13.3915 11.0877 13.419 11.097 13.4465C11.7569 15.0241 12.6863 16.5099 14.099 18.2801L14.1083 18.2893C16.6734 21.4078 19.378 23.8383 22.3614 25.7002C22.7425 25.9387 23.1328 26.1313 23.5046 26.3148C23.8391 26.4799 24.1551 26.6358 24.4247 26.8009C24.4619 26.8192 24.499 26.8467 24.5362 26.8651C24.8522 27.021 25.1496 27.0944 25.4563 27.0944C26.2277 27.0944 26.711 26.6174 26.869 26.4615L28.6908 24.6637C29.0068 24.3518 29.5086 23.9758 30.0942 23.9758C30.6704 23.9758 31.1444 24.3335 31.4325 24.6453C31.4418 24.6545 31.4418 24.6545 31.4511 24.6637L36.5721 29.7175C37.5294 30.653 36.5814 32.5883 36.5814 32.5883Z" stroke="#2D8D3D" stroke-width="2" stroke-linecap="round" stroke-linejoin="round"/>
</svg>
