<svg width="59" height="43" viewBox="0 0 59 43" fill="none" xmlns="http://www.w3.org/2000/svg">
<path d="M37.8116 8.01513C36.7212 8.44577 35.6727 8.81228 34.6616 9.26583C30.8175 10.9918 27.6629 13.6742 24.8085 16.73C23.178 18.4754 21.6596 20.3297 20.0925 22.1359C19.934 22.318 19.7823 22.507 19.609 22.7155C16.476 19.2543 12.9195 16.5696 8.22617 15.7175C8.5534 16.1172 8.88516 16.5135 9.2056 16.9189C10.9731 19.1592 12.2039 21.7156 13.4415 24.2685C14.6372 26.7344 15.817 29.2095 17.4962 31.3948C17.623 31.5609 17.7498 31.7269 17.8845 31.8861C18.736 32.8929 19.7358 33.0807 20.7651 32.224C21.7185 31.4314 22.6039 30.5232 23.3852 29.5554C25.378 27.0895 27.2519 24.5251 29.2561 22.0683C32.3981 18.2166 36.0509 14.9639 40.2562 12.2941C43.5874 10.1787 47.0952 8.69889 50.9766 8.11477C53.6805 7.70703 56.3856 7.7162 59 8.07927C57.5212 8.33009 55.9383 8.51564 54.3961 8.87527C49.7436 9.96219 45.6379 12.1154 42.1833 15.4873C41.8878 15.7759 41.8199 16.0302 41.915 16.439C44.1105 25.9064 40.0773 35.3782 31.7312 40.2035C27.6063 42.5881 23.1383 43.4551 18.4212 42.7759C12.162 41.8746 7.19466 38.7868 3.65175 33.4965C-2.34935 24.5354 -0.815105 12.4682 7.23203 5.34765C11.9367 1.18552 17.4679 -0.54279 23.6852 0.147845C29.2629 0.767469 33.8418 3.34561 37.5093 7.61655C37.6066 7.72994 37.6916 7.85593 37.8127 8.01398L37.8116 8.01513Z" fill="url(#paint0_linear_225_735)"/>
<defs>
<linearGradient id="paint0_linear_225_735" x1="0" y1="0" x2="40.5181" y2="57.4938" gradientUnits="userSpaceOnUse">
<stop stop-color="#ED1C24"/>
<stop offset="1" stop-color="#A01B21"/>
</linearGradient>
</defs>
</svg>
