<svg width="199" height="141" viewBox="0 0 199 141" fill="none" xmlns="http://www.w3.org/2000/svg">
<path fill-rule="evenodd" clip-rule="evenodd" d="M6.70653 0.00338122H27.3433C27.3433 0.00338122 28.9712 -0.267652 31.1756 4.04347L41.7484 22.8718C41.7484 22.8718 43.1049 25.3026 45.0211 25.5228H50.583L43.9273 34.3738H40.307C40.307 34.3738 37.348 34.3992 35.0842 29.8763L24.4182 10.5483C24.4182 10.5483 23.6721 8.88818 21.4083 8.99829H0L6.70653 0.00338122Z" fill="white"/>
<path fill-rule="evenodd" clip-rule="evenodd" d="M11.9039 10.65H22.4766L34.9655 32.9001C34.9655 32.9001 36.0338 35.4411 38.9844 36.0255H42.6895L36.6951 44.0802H32.8374C32.8374 44.0802 30.3362 44.1904 28.6575 40.921L11.9039 10.65Z" fill="white"/>
<path fill-rule="evenodd" clip-rule="evenodd" d="M0 10.5992H10.1997L28.437 43.5212C28.437 43.5212 29.2595 45.3931 31.2858 45.6048H35.576L29.1832 54.1932H25.5628C25.5628 54.1932 23.8586 54.1932 22.341 51.2542L0 10.5992Z" fill="white"/>
<path fill-rule="evenodd" clip-rule="evenodd" d="M108.932 25.4975H86.7016C86.7016 25.4975 84.2004 25.3874 82.386 27.8267L65.022 51.1525C65.022 51.1525 62.4106 54.2016 67.0738 54.2016H87.5749L94.1543 45.4015H84.7007C84.7007 45.4015 82.7336 45.6133 83.9546 43.9278L90.5848 34.9922C90.5848 34.9922 91.1698 34.3739 93.1962 34.3739H102.328L108.932 25.4975Z" fill="white"/>
<path fill-rule="evenodd" clip-rule="evenodd" d="M118.657 34.4332L119.191 33.7132H116.478C116.478 33.7132 116.054 33.637 115.469 34.4332C115.469 34.4332 114.376 35.8476 115.469 35.8476H124.474C124.474 35.8476 127.221 35.7375 125.669 37.8295L114.884 52.3298C114.884 52.3298 113.816 54.2863 110.492 54.2863H93.6625C93.6625 54.2863 90.4152 54.0153 91.6955 52.0927L96.6724 45.41H107.271L106.524 46.5026H109.373C109.373 46.5026 109.636 46.5788 110.221 45.7573C110.221 45.7573 111.713 43.9617 110.704 43.9109H100.64C100.64 43.9109 98.3257 43.5382 99.3601 41.5817L110.518 26.8188C110.518 26.8188 111.289 25.4552 113.104 25.4552H131.4C131.4 25.4552 134.945 25.379 133.079 27.886L128.204 34.3823L118.674 34.4332H118.657Z" fill="white"/>
<path fill-rule="evenodd" clip-rule="evenodd" d="M53.0163 25.4975L46.3607 34.3739H54.5086L39.7559 54.1678H52.2448L66.972 34.3739H75.1199L81.7501 25.4975H53.0163Z" fill="white"/>
<path fill-rule="evenodd" clip-rule="evenodd" d="M132.316 18.8657C131.782 19.3993 131.545 20.0176 131.545 20.7629C131.545 21.5083 131.807 22.152 132.316 22.6856C132.85 23.2192 133.486 23.4902 134.232 23.4902C134.978 23.4902 135.614 23.2192 136.148 22.6856C136.683 22.152 136.92 21.5083 136.92 20.7629C136.92 20.0176 136.657 19.3739 136.148 18.8657C135.614 18.3321 134.978 18.0611 134.232 18.0611C133.486 18.0611 132.825 18.3321 132.316 18.8657ZM136.42 22.982C135.809 23.6003 135.063 23.8883 134.207 23.8883C133.351 23.8883 132.613 23.5918 131.994 22.982C131.384 22.3637 131.087 21.6184 131.087 20.7629C131.087 19.9075 131.384 19.1621 131.994 18.5439C132.604 17.9256 133.325 17.6376 134.207 17.6376C135.089 17.6376 135.801 17.934 136.42 18.5439C137.03 19.1621 137.327 19.8821 137.327 20.7629C137.352 21.6184 137.03 22.3637 136.42 22.982ZM134.792 19.5856C134.631 19.5094 134.393 19.4501 134.071 19.4501H133.563V20.7036H134.122C134.385 20.7036 134.571 20.6782 134.707 20.6274C134.945 20.5173 135.055 20.3564 135.055 20.0938C135.029 19.8228 134.945 19.6619 134.792 19.5856ZM134.156 19.0266C134.58 19.0266 134.902 19.0775 135.089 19.1621C135.436 19.3231 135.623 19.5941 135.623 20.043C135.623 20.3394 135.513 20.5766 135.275 20.7121C135.165 20.7883 134.978 20.8476 134.766 20.873C135.029 20.9239 135.25 21.034 135.352 21.2203C135.487 21.4066 135.538 21.5676 135.538 21.7539V22.2621C135.538 22.3383 135.563 22.423 135.563 22.4484L135.589 22.4992H135.029V22.0673C135.029 21.6692 134.919 21.3982 134.707 21.2881C134.571 21.2118 134.36 21.178 134.046 21.178H133.563V22.4654H132.952V19.0182H134.148L134.156 19.0266Z" fill="white"/>
<path d="M31.8624 66.8555L30.2854 74.4783C32.1422 72.1576 37.6363 65.5596 46.9372 65.5596C55.2208 65.5596 61.3592 70.8533 61.3592 79.3146C61.3592 82.1011 60.9862 84.7945 59.689 90.3761L54.3899 115.379H38.5689L43.5967 91.6804C44.3428 87.6827 44.9024 85.0825 44.9024 83.3123C44.9024 82.6601 44.8091 81.7284 44.5293 81.1779C44.063 79.9667 42.7573 78.3914 39.7813 78.3914C37.5515 78.3914 33.8294 79.0435 30.7602 83.6003C28.9881 86.2005 28.5303 88.4365 27.2246 94.196L22.7564 115.387H7.02024L15.821 74.0548C16.7112 69.8708 20.4163 66.8724 24.698 66.8724H31.8624V66.8555Z" fill="white"/>
<path d="M71.7794 71.6833C74.6621 69.1762 80.614 65.2717 90.2032 65.2717C98.8598 65.2717 103.972 67.965 106.855 70.2011C110.018 72.7081 115.045 77.917 115.045 87.8606C115.045 89.995 114.952 93.62 113.273 98.3631C108.525 112.211 97.1811 115.464 91.9668 116.395C90.6611 116.582 88.8043 116.861 85.8283 116.861C83.5985 116.861 76.8071 116.861 70.94 112.957C67.3112 110.543 61.9188 105.241 61.9188 94.738C61.9188 93.4337 62.1053 90.0881 63.038 86.3699C63.6908 84.0492 66.014 76.799 71.7878 71.6833H71.7794ZM77.7313 95.8476C77.7313 97.7025 78.1044 99.0068 78.4774 99.7521C79.8764 103.005 83.0389 104.775 86.4812 104.775C88.5245 104.775 92.1533 104.123 95.231 99.9385C97.6474 96.5929 99.2329 91.2061 99.2329 87.0221C99.2329 83.6765 98.207 80.4241 95.0445 78.7471C94.2051 78.2812 92.7214 77.6291 90.483 77.6291C88.6178 77.6291 85.362 78.0949 82.4793 81.6268C81.6399 82.6517 80.7073 84.0407 79.6898 86.6494C78.7572 88.877 78.3842 90.3676 78.1976 91.3925C78.1044 91.9515 77.7313 93.8995 77.7313 95.856V95.8476Z" fill="white"/>
<path d="M131.375 66.8555L130.629 101.522L144.958 66.8555H161.236L160.024 101.336L174.726 66.8555H191.378L165.789 115.37H149.324L150.164 80.8899L135.648 115.37H118.717L116.114 66.8555H131.375Z" fill="white"/>
<path d="M199 100.76C194.93 113.363 188.207 130.159 180.635 141C180.822 131.997 178.635 127.923 178.635 127.923C148.595 144.981 114.215 143.829 86.6169 129.244C86.6169 129.244 155.709 146.658 199 100.76Z" fill="white"/>
</svg>
