<svg width="163" height="115" viewBox="0 0 163 115" fill="none" xmlns="http://www.w3.org/2000/svg">
<g clip-path="url(#clip0_356_414)">
<path fill-rule="evenodd" clip-rule="evenodd" d="M5.49329 -0.000111016H22.3968C22.3968 -0.000111016 23.7302 -0.221159 25.5358 3.29488L34.1959 18.6508C34.1959 18.6508 35.3071 20.6333 36.8766 20.8129H41.4323L35.9807 28.0315H33.0153C33.0153 28.0315 30.5916 28.0522 28.7373 24.3635L20.0009 8.60002C20.0009 8.60002 19.3897 7.2461 17.5355 7.33591H0L5.49329 -0.000111016Z" fill="#EC2227"/>
<path fill-rule="evenodd" clip-rule="evenodd" d="M9.75043 8.68301H18.4105L28.6401 26.8296C28.6401 26.8296 29.5152 28.902 31.9319 29.3786H34.9668L30.0568 35.9479H26.897C26.897 35.9479 24.8483 36.0377 23.4732 33.3713L9.75043 8.68301Z" fill="#EC2227"/>
<path fill-rule="evenodd" clip-rule="evenodd" d="M0 8.64157H8.35452L23.2927 35.4919C23.2927 35.4919 23.9663 37.0186 25.6261 37.1912H29.1401L23.9038 44.1957H20.9384C20.9384 44.1957 19.5425 44.1957 18.2994 41.7987L0 8.64157Z" fill="#EC2227"/>
<path fill-rule="evenodd" clip-rule="evenodd" d="M89.226 20.7923H71.0169C71.0169 20.7923 68.9682 20.7025 67.4821 22.6919L53.2592 41.7158C53.2592 41.7158 51.1202 44.2026 54.9399 44.2026H71.7322L77.1214 37.0255H69.378C69.378 37.0255 67.7668 37.1982 68.7668 35.8235L74.1976 28.5359C74.1976 28.5359 74.6768 28.0316 76.3366 28.0316H83.8161L89.226 20.7923Z" fill="#EC2227"/>
<path fill-rule="evenodd" clip-rule="evenodd" d="M97.1916 28.0799L97.6291 27.4928H95.4068C95.4068 27.4928 95.0596 27.4306 94.5804 28.0799C94.5804 28.0799 93.6845 29.2335 94.5804 29.2335H101.956C101.956 29.2335 104.206 29.1437 102.935 30.8499L94.1012 42.676C94.1012 42.676 93.2262 44.2716 90.5038 44.2716H76.7185C76.7185 44.2716 74.0587 44.0506 75.1074 42.4825L79.1839 37.0323H87.8648L87.2537 37.9234H89.5871C89.5871 37.9234 89.8024 37.9856 90.2816 37.3156C90.2816 37.3156 91.5039 35.8511 90.6775 35.8097H82.434C82.434 35.8097 80.5381 35.5057 81.3854 33.91L90.5247 21.8699C90.5247 21.8699 91.1566 20.7577 92.6428 20.7577H107.63C107.63 20.7577 110.532 20.6955 109.005 22.7402L105.011 28.0385L97.2055 28.0799H97.1916Z" fill="#EC2227"/>
<path fill-rule="evenodd" clip-rule="evenodd" d="M43.4254 20.7923L37.9738 28.0316H44.6477L32.5639 44.175H42.7935L54.8565 28.0316H61.5304L66.9612 20.7923H43.4254Z" fill="#EC2227"/>
<path fill-rule="evenodd" clip-rule="evenodd" d="M108.38 15.3835C107.942 15.8187 107.748 16.323 107.748 16.9309C107.748 17.5387 107.963 18.0637 108.38 18.4989C108.817 18.9341 109.338 19.1551 109.949 19.1551C110.56 19.1551 111.081 18.9341 111.519 18.4989C111.956 18.0637 112.151 17.5387 112.151 16.9309C112.151 16.323 111.935 15.798 111.519 15.3835C111.081 14.9483 110.56 14.7273 109.949 14.7273C109.338 14.7273 108.796 14.9483 108.38 15.3835ZM111.741 18.7407C111.241 19.2449 110.63 19.4798 109.928 19.4798C109.227 19.4798 108.623 19.238 108.116 18.7407C107.616 18.2364 107.373 17.6285 107.373 16.9309C107.373 16.2332 107.616 15.6253 108.116 15.121C108.616 14.6168 109.206 14.3819 109.928 14.3819C110.651 14.3819 111.234 14.6237 111.741 15.121C112.241 15.6253 112.484 16.2124 112.484 16.9309C112.505 17.6285 112.241 18.2364 111.741 18.7407ZM110.407 15.9707C110.276 15.9085 110.081 15.8602 109.817 15.8602H109.4V16.8825H109.859C110.074 16.8825 110.227 16.8618 110.338 16.8203C110.532 16.7305 110.623 16.5993 110.623 16.3851C110.602 16.1641 110.532 16.0328 110.407 15.9707ZM109.887 15.5148C110.234 15.5148 110.498 15.5562 110.651 15.6253C110.935 15.7565 111.088 15.9776 111.088 16.3437C111.088 16.5855 110.998 16.7789 110.803 16.8894C110.713 16.9516 110.56 16.9999 110.387 17.0207C110.602 17.0621 110.782 17.1519 110.866 17.3039C110.977 17.4558 111.019 17.5871 111.019 17.7391V18.1535C111.019 18.2157 111.039 18.2848 111.039 18.3055L111.06 18.3469H110.602V17.9946C110.602 17.67 110.512 17.4489 110.338 17.3591C110.227 17.297 110.053 17.2693 109.796 17.2693H109.4V18.3193H108.9V15.5079H109.88L109.887 15.5148Z" fill="#EC2227"/>
<path d="M26.0983 54.5228L24.8066 60.7397C26.3275 58.847 30.8277 53.4659 38.4461 53.4659C45.2311 53.4659 50.2591 57.7832 50.2591 64.684C50.2591 66.9567 49.9535 69.1533 48.891 73.7055L44.5505 94.0972H31.5916L35.7099 74.7693C36.321 71.5089 36.7793 69.3882 36.7793 67.9445C36.7793 67.4126 36.703 66.6527 36.4738 66.2037C36.0918 65.2159 35.0223 63.9311 32.5847 63.9311C30.7583 63.9311 27.7095 64.463 25.1955 68.1794C23.7441 70.3 23.3691 72.1237 22.2996 76.8209L18.6397 94.1041H5.75024L12.9589 60.3943C13.6881 56.9819 16.7229 54.5366 20.23 54.5366H26.0983V54.5228Z" fill="#EC2227"/>
<path d="M58.7942 58.4602C61.1554 56.4155 66.0306 53.231 73.8851 53.231C80.9757 53.231 85.1633 55.4277 87.5246 57.2513C90.1149 59.296 94.2332 63.5443 94.2332 71.654C94.2332 73.3947 94.1568 76.3512 92.7817 80.2195C88.8927 91.5137 79.6006 94.1663 75.3296 94.9261C74.2601 95.0781 72.7392 95.306 70.3016 95.306C68.4751 95.306 62.9124 95.306 58.1066 92.1216C55.1343 90.1529 50.7174 85.8286 50.7174 77.263C50.7174 76.1992 50.8702 73.4707 51.6341 70.4382C52.1689 68.5455 54.0717 62.6324 58.8011 58.4602H58.7942ZM63.6694 78.168C63.6694 79.6807 63.9749 80.7445 64.2805 81.3524C65.4264 84.005 68.0168 85.4487 70.8363 85.4487C72.51 85.4487 75.4824 84.9168 78.0033 81.5044C79.9826 78.7758 81.2812 74.3825 81.2812 70.9701C81.2812 68.2415 80.4409 65.589 77.8505 64.2212C77.163 63.8413 75.9477 63.3094 74.1143 63.3094C72.5864 63.3094 69.9196 63.6893 67.5584 66.5699C66.8709 67.4057 66.107 68.5386 65.2736 70.6661C64.5097 72.4829 64.2041 73.6986 64.0513 74.5345C63.9749 74.9904 63.6694 76.5792 63.6694 78.1749V78.168Z" fill="#EC2227"/>
<path d="M107.609 54.5228L106.998 82.7961L118.734 54.5228H132.068L131.075 82.6442L143.117 54.5228H156.757L135.797 94.0903H122.311L122.998 65.9689L111.109 94.0903H97.2403L95.1082 54.5228H107.609Z" fill="#EC2227"/>
<path d="M163 82.1744C159.667 92.4532 154.159 106.151 147.958 114.993C148.11 107.65 146.319 104.328 146.319 104.328C121.714 118.24 93.5526 117.3 70.9475 105.405C70.9475 105.405 127.54 119.607 163 82.1744Z" fill="#EC2227"/>
</g>
<defs>
<clipPath id="clip0_356_414">
<rect width="163" height="115" fill="white"/>
</clipPath>
</defs>
</svg>
