<svg width="155" height="62" viewBox="0 0 155 62" fill="none" xmlns="http://www.w3.org/2000/svg">
<path fill-rule="evenodd" clip-rule="evenodd" d="M7.57409 0.0036898H30.8674C30.8674 0.0036898 32.7008 -0.298514 35.1954 4.56697L47.1276 25.8421C47.1276 25.8421 48.6605 28.5922 50.8245 28.8339H57.1062L49.5922 38.8369H45.5046C45.5046 38.8369 42.1684 38.8671 39.6137 33.7599L27.5613 11.9105C27.5613 11.9105 26.7197 10.0369 24.1649 10.1577H0L7.57409 0.0036898Z" fill="#ED1C24"/>
<path fill-rule="evenodd" clip-rule="evenodd" d="M13.435 12.0316H25.3672L39.4634 37.175C39.4634 37.175 40.6657 40.0459 44.0019 40.7108H48.1796L41.4171 49.8071H37.059C37.059 49.8071 34.2337 49.928 32.3402 46.2411L13.435 12.0316Z" fill="#ED1C24"/>
<path fill-rule="evenodd" clip-rule="evenodd" d="M0 11.9712H11.5114L32.0997 49.1725C32.0997 49.1725 33.0314 51.2879 35.3157 51.5297H40.1547L32.9413 61.2304H28.8537C28.8537 61.2304 26.9301 61.2304 25.2169 57.9062L0 11.9712Z" fill="#ED1C24"/>
<path fill-rule="evenodd" clip-rule="evenodd" d="M122.959 28.804H97.8619C97.8619 28.804 95.0367 28.6831 92.9929 31.4331L73.3964 57.7853C73.3964 57.7853 70.451 61.2304 75.7107 61.2304H98.8538L106.278 51.2879H95.6077C95.6077 51.2879 93.3836 51.5297 94.7662 49.6258L102.25 39.5322C102.25 39.5322 102.911 38.8371 105.196 38.8371H115.505L122.959 28.804Z" fill="#ED1C24"/>
<path fill-rule="evenodd" clip-rule="evenodd" d="M133.929 38.8976L134.53 38.0817H131.464C131.464 38.0817 130.984 37.991 130.322 38.8976C130.322 38.8976 129.09 40.4993 130.322 40.4993H140.481C140.481 40.4993 143.577 40.3784 141.834 42.7356L129.661 59.1151C129.661 59.1151 128.459 61.3212 124.702 61.3212H105.707C105.707 61.3212 102.04 61.019 103.482 58.8431L109.103 51.288H121.065L120.224 52.527H123.44C123.44 52.527 123.74 52.6177 124.401 51.6809C124.401 51.6809 126.084 49.6561 124.942 49.5957H113.581C113.581 49.5957 110.966 49.1726 112.139 46.9665L124.732 30.2848C124.732 30.2848 125.604 28.7436 127.647 28.7436H148.296C148.296 28.7436 152.293 28.6529 150.189 31.4936L144.689 38.8372L133.929 38.8976Z" fill="#ED1C24"/>
<path fill-rule="evenodd" clip-rule="evenodd" d="M59.8413 28.804L52.3273 38.8372H61.5244L44.8734 61.2002H58.9697L75.5906 38.8372H84.7877L92.2716 28.804H59.8413Z" fill="#ED1C24"/>
<path fill-rule="evenodd" clip-rule="evenodd" d="M149.348 21.3093C148.747 21.9137 148.476 22.6088 148.476 23.4549C148.476 24.3011 148.777 25.0264 149.348 25.6308C149.949 26.2352 150.67 26.5374 151.512 26.5374C152.353 26.5374 153.075 26.2352 153.676 25.6308C154.277 25.0264 154.547 24.3011 154.547 23.4549C154.547 22.6088 154.247 21.8835 153.676 21.3093C153.075 20.7049 152.353 20.4027 151.512 20.4027C150.64 20.4027 149.919 20.7049 149.348 21.3093ZM153.976 25.9632C153.285 26.6583 152.443 26.9907 151.482 26.9907C150.49 26.9907 149.678 26.6583 148.987 25.9632C148.296 25.2682 147.965 24.422 147.965 23.4549C147.965 22.4879 148.296 21.6417 148.987 20.9467C149.678 20.2516 150.49 19.9192 151.482 19.9192C152.474 19.9192 153.285 20.2516 153.976 20.9467C154.668 21.6417 154.998 22.4577 154.998 23.4549C155.028 24.422 154.668 25.2682 153.976 25.9632ZM152.143 22.1252C151.963 22.0346 151.692 21.9741 151.331 21.9741H150.76V23.3945H151.392C151.692 23.3945 151.902 23.3643 152.053 23.3038C152.323 23.183 152.443 23.0016 152.443 22.6994C152.413 22.3972 152.323 22.2159 152.143 22.1252ZM151.422 21.4906C151.902 21.4906 152.263 21.5511 152.474 21.6417C152.864 21.823 153.075 22.1252 153.075 22.639C153.075 22.9714 152.954 23.2434 152.684 23.3945C152.564 23.4852 152.353 23.5456 152.113 23.5758C152.413 23.6363 152.654 23.7571 152.774 23.9687C152.924 24.1802 152.984 24.3616 152.984 24.5731V24.8451C152.984 24.9357 152.984 25.0264 152.984 25.1473C152.984 25.2379 153.015 25.3286 153.015 25.3588L153.045 25.4193H152.413V25.389V25.3588V25.2379V24.9357C152.413 24.4824 152.293 24.1802 152.053 24.0594C151.902 23.9687 151.662 23.9385 151.301 23.9385H150.76V25.389H150.069V21.4906H151.422Z" fill="#ED1C24"/>
</svg>
